#!OML:ASF F:\VICON\USERDATA\INSTALL\Justin_Nancy\Justin_Nancy.ASF
:FULLY-SPECIFIED
:DEGREES
142
root 12.9042 17.2907 -5.62562 0.459197 -1.81796 -3.15707
lowerback 6.56167 1.87343 1.62781
upperback -0.233552 2.71021 2.18149
thorax -3.9518 1.33404 1.07444
lowerneck -16.5373 -4.63872 -9.85866
upperneck 24.759 -5.66368 6.92079
head 11.2608 -2.66503 3.3643
rclavicle -2.09842e-014 -1.59028e-014
rhumerus -25.193 -6.68498 -82.1219
rradius 34.8698
rwrist 3.71083
rhand -14.4893 12.5093
rfingers 7.12502
rthumb 11.6573 -17.1464
lclavicle -2.09842e-014 -1.59028e-014
lhumerus -34.0154 21.8802 79.1502
lradius 18.5754
lwrist -18.977
lhand -12.8213 27.4073
lfingers 7.12502
lthumb 13.2654 56.9652
rfemur 11.3591 5.22759 29.558
rtibia 23.6147
rfoot -11.9453 -8.63034
rtoes -14.0095
lfemur -28.5101 -1.79663 -13.9407
ltibia 25.3881
lfoot -3.49662 6.6919
ltoes -9.61935
143
root 12.92 17.3044 -5.46593 0.355567 -1.49441 -2.4245
lowerback 6.4762 1.76379 0.807359
upperback -0.197646 2.48963 1.96965
thorax -3.88941 1.23946 1.3396
lowerneck -16.5098 -4.47486 -9.89836
upperneck 24.9122 -5.48351 7.1167
head 11.3015 -2.56513 3.47579
rclavicle -1.28092e-014 1.98785e-015
rhumerus -25.4094 -7.37276 -82.1098
rradius 34.401
rwrist 4.24959
rhand -14.0419 12.3203
rfingers 7.12502
rthumb 12.0887 -17.3105
lclavicle -1.28092e-014 1.98785e-015
lhumerus -33.97 22.2532 78.8612
lradius 18.4219
lwrist -19.1296
lhand -12.4004 28.4631
lfingers 7.12502
lthumb 13.6712 57.9941
rfemur 10.9146 5.09703 28.8
rtibia 25.4544
rfoot -11.3888 -8.62276
rtoes -13.6011
lfemur -28.0163 -1.69477 -14.9304
ltibia 25.3269
lfoot -2.89869 5.227
ltoes -11.7398
144
root 12.9385 17.3198 -5.29857 0.257592 -1.10767 -2.01645
lowerback 6.34402 1.61351 0.309667
upperback -0.132632 2.24497 1.8858
thorax -3.75852 1.127 1.5605
lowerneck -16.9758 -4.04231 -9.33905
upperneck 24.6993 -4.90791 6.88938
head 11.2301 -2.2683 3.3761
rclavicle -2.168e-014 -2.06736e-014
rhumerus -25.7808 -7.95024 -82.0512
rradius 34.2213
rwrist 4.90005
rhand -13.7696 12.1008
rfingers 7.12502
rthumb 12.3513 -17.5144
lclavicle -2.168e-014 -2.06736e-014
lhumerus -33.9318 22.6507 78.5844
lradius 18.1728
lwrist -19.3516
lhand -12.2581 28.2727
lfingers 7.12502
lthumb 13.8083 57.7944
rfemur 10.4171 4.71988 28.3304
rtibia 27.4083
rfoot -10.4845 -8.56874
rtoes -14.4332
lfemur -27.5407 -1.81128 -15.4875
ltibia 25.3929
lfoot -2.25619 4.46953
ltoes -11.3919
145
root 12.9573 17.3521 -5.13442 0.236302 -0.724981 -1.72009
lowerback 6.28725 1.50394 0.00409717
upperback -0.185084 2.07213 1.76872
thorax -3.78269 1.04618 1.62829
lowerneck -16.4406 -4.42766 -9.60761
upperneck 25.0629 -5.43224 6.82318
head 11.3211 -2.55204 3.32834
rclavicle 2.62147e-015 2.14687e-014
rhumerus -26.1786 -8.77175 -81.9536
rradius 33.8189
rwrist 5.17562
rhand -14.2269 12.2044
rfingers 7.12502
rthumb 11.9103 -17.4369
lclavicle 2.62147e-015 2.14687e-014
lhumerus -34.0062 22.6323 78.3525
lradius 17.982
lwrist -19.3248
lhand -12.6497 27.07
lfingers 7.12502
lthumb 13.4309 56.617
rfemur 9.71394 4.19121 27.886
rtibia 29.509
rfoot -9.36545 -8.27645
rtoes -14.5988
lfemur -26.9893 -1.3915 -16.1247
ltibia 25.4896
lfoot -2.0541 3.33866
ltoes -9.8447
146
root 12.9804 17.3873 -4.9788 0.225399 -0.401593 -1.58341
lowerback 6.34829 1.40622 -0.048154
upperback -0.222435 1.93518 1.66614
thorax -3.84963 0.978382 1.5628
lowerneck -16.4846 -4.64965 -9.75717
upperneck 25.3966 -5.72692 6.84664
head 11.4927 -2.69806 3.32275
rclavicle 7.62836e-015 1.03368e-014
rhumerus -26.4506 -9.69191 -81.8396
rradius 33.2966
rwrist 5.42352
rhand -14.2899 12.5302
rfingers 7.12502
rthumb 11.8495 -17.1145
lclavicle 7.62836e-015 1.03368e-014
lhumerus -34.0413 22.5507 78.1898
lradius 17.9497
lwrist -19.2834
lhand -12.6789 26.9256
lfingers 7.12502
lthumb 13.4028 56.4745
rfemur 8.85776 3.61328 27.535
rtibia 31.6965
rfoot -7.95418 -7.83159
rtoes -14.2101
lfemur -26.4892 -0.969255 -16.5848
ltibia 25.6686
lfoot -2.27606 2.31506
ltoes -11.1782
147
root 13.0096 17.3999 -4.82721 0.132306 -0.280391 -1.77321
lowerback 6.45052 1.33549 0.228607
upperback -0.247643 1.86479 1.70352
thorax -3.9236 0.938362 1.45035
lowerneck -16.4434 -4.6478 -9.93119
upperneck 25.5555 -5.74434 7.04836
head 11.5594 -2.70019 3.42933
rclavicle -3.00662e-015 2.06736e-014
rhumerus -26.9977 -10.2982 -81.6784
rradius 33.113
rwrist 5.57701
rhand -13.8404 12.3297
rfingers 7.12502
rthumb 12.283 -17.2896
lclavicle -3.00662e-015 2.06736e-014
lhumerus -34.1107 23.1717 77.7852
lradius 17.6901
lwrist -20.0341
lhand -12.8515 27.2422
lfingers 7.12502
lthumb 13.2363 56.8019
rfemur 7.93422 3.16441 27.4999
rtibia 33.9938
rfoot -6.11205 -7.33452
rtoes -13.7781
lfemur -26.1489 -0.782023 -16.525
ltibia 25.878
lfoot -2.26057 2.25421
ltoes -8.21541
